<?xml version="1.0" encoding="UTF-8"?><svg id="Layer_2" xmlns="http://www.w3.org/2000/svg" viewBox="0 0 71.48 58.99"><defs><style>.cls-1{fill:#fff;}.cls-1,.cls-2{opacity:.15;}.cls-3{fill:#ed1c24;}.cls-2{fill:#231f20;}</style></defs><g id="Layer_1-2"><path class="cls-3" d="M36.93,52.11L3.96,26.94C-.46,23.57-1.31,17.26,2.07,12.84L8.85,3.95C12.22-.46,18.53-1.31,22.94,2.06L55.91,27.23c4.42,3.37,5.26,9.68,1.89,14.1l-6.78,8.89c-3.37,4.42-9.68,5.26-14.1,1.89Z"/><path class="cls-3" d="M63.94,42.89l-9.79,12.83c-.67,.88-1.93,1.05-2.82,.38l-2.75-2.1,12.23-16.03,2.74,2.1c.88,.67,1.05,1.94,.38,2.82Z"/><path class="cls-3" d="M69.13,58.61l-12.28-5.84,4.96-6.49,8.87,10.3c1.6,1.86,.67,3.08-1.55,2.03Z"/><path class="cls-1" d="M21.2,.99c-5.07,2.47-9.35,6.34-12.18,11.27-3.27,5.7-3.83,11.46-3.56,15.83l-1.51-1.15C-.46,23.57-1.31,17.26,2.07,12.84L8.85,3.95C11.79,.1,16.99-1.04,21.2,.99Z"/><path class="cls-2" d="M69.13,58.61l-3.01-1.43c.52-.58,1-1.21,1.43-1.87,.3-.46,.57-.93,.81-1.42l2.32,2.7c1.6,1.86,.67,3.08-1.55,2.03Z"/></g></svg>