<?xml version="1.0" standalone="no"?>
<!DOCTYPE svg PUBLIC "-//W3C//DTD SVG 20010904//EN"
 "http://www.w3.org/TR/2001/REC-SVG-20010904/DTD/svg10.dtd">
<svg version="1.0" xmlns="http://www.w3.org/2000/svg"
 width="632.000000pt" height="632.000000pt" viewBox="0 0 632.000000 632.000000"
 preserveAspectRatio="xMidYMid meet">
<metadata>
Created by potrace 1.14, written by Peter Selinger 2001-2017
</metadata>
<g transform="translate(0.000000,632.000000) scale(0.100000,-0.100000)"
fill="#000000" stroke="none">
<path d="M1450 5800 c-211 -42 -372 -122 -545 -269 -47 -39 -123 -132 -258
-311 -23 -30 -45 -59 -49 -65 -5 -5 -31 -39 -58 -75 -28 -36 -59 -76 -70 -88
-11 -13 -20 -26 -20 -28 0 -3 -160 -214 -195 -257 -91 -110 -196 -318 -220
-437 -2 -8 -4 -15 -5 -15 -2 0 -9 -34 -17 -90 -11 -72 -8 -311 5 -370 6 -27
14 -60 16 -73 13 -62 73 -217 98 -254 10 -14 18 -29 18 -34 0 -13 121 -174
160 -212 59 -58 112 -105 155 -136 22 -17 42 -33 45 -36 3 -3 30 -23 60 -45
30 -22 80 -59 110 -82 30 -24 60 -47 65 -51 8 -6 76 -58 110 -85 6 -4 21 -16
34 -27 13 -11 27 -20 30 -20 3 0 22 -14 41 -30 41 -35 33 -28 140 -110 47 -35
198 -150 335 -255 434 -331 459 -350 525 -400 36 -26 70 -53 75 -59 6 -6 33
-27 60 -46 28 -19 55 -39 62 -45 22 -18 37 -30 123 -95 47 -35 90 -69 96 -75
6 -5 21 -17 34 -25 28 -20 169 -127 195 -148 11 -10 36 -28 55 -42 19 -13 37
-27 40 -30 3 -4 32 -26 65 -51 33 -24 62 -47 63 -51 2 -5 8 -8 13 -8 5 0 18
-8 28 -18 11 -9 26 -21 33 -27 7 -5 40 -30 73 -55 33 -25 62 -48 65 -51 3 -3
39 -28 80 -56 256 -171 551 -226 868 -162 l53 11 92 -70 c121 -92 150 -109
227 -133 162 -50 356 -4 466 111 13 14 24 28 24 32 0 5 7 8 15 8 8 0 15 5 15
12 0 6 8 19 18 28 15 15 20 16 42 4 14 -7 86 -42 160 -77 252 -120 335 -159
460 -219 142 -68 208 -96 242 -100 13 -2 28 -6 33 -9 23 -12 144 -9 198 6 116
30 197 97 250 204 29 59 32 74 31 151 0 47 -3 94 -6 105 -2 11 -9 34 -13 50
-15 53 -83 162 -146 230 -53 59 -75 83 -114 131 -22 27 -52 62 -67 77 -16 16
-28 30 -28 33 0 4 -29 39 -70 83 -14 15 -47 54 -75 86 -27 33 -66 78 -86 100
-47 54 -79 96 -79 106 0 4 6 14 13 21 29 28 67 98 87 159 21 64 30 193 16 236
-4 12 -9 31 -11 43 -7 34 -50 123 -74 150 -12 14 -30 34 -40 45 -19 22 -73 68
-117 100 -111 81 -107 76 -110 146 -11 221 -89 436 -222 611 -82 107 -152 171
-369 335 -37 28 -112 85 -166 127 -54 42 -102 76 -106 76 -5 0 -11 3 -13 8 -1
4 -23 23 -48 42 -25 19 -52 40 -60 47 -19 15 -120 92 -152 115 -12 10 -88 67
-168 129 -80 61 -158 121 -173 133 -16 11 -34 26 -40 31 -19 16 -248 189 -266
200 -9 6 -18 13 -21 16 -3 4 -27 24 -55 44 -27 21 -51 42 -53 47 -2 4 -8 8
-14 8 -5 0 -35 20 -66 45 -72 57 -62 50 -162 125 -47 35 -87 67 -90 70 -3 3
-30 23 -60 45 -30 22 -57 42 -60 45 -3 3 -25 21 -50 40 -25 19 -46 38 -48 42
-2 5 -8 8 -14 8 -8 0 -49 31 -140 106 -10 7 -18 12 -18 9 0 -3 -8 3 -18 13
-10 9 -33 28 -52 42 -19 14 -46 36 -60 50 -14 14 -29 26 -33 27 -5 1 -21 12
-37 25 -16 12 -41 32 -56 43 -15 11 -33 26 -40 33 -7 6 -15 12 -19 12 -13 0
-34 28 -27 35 4 5 2 5 -5 2 -6 -4 -33 10 -60 30 -27 21 -63 48 -81 61 -35 24
-194 104 -233 117 -13 4 -28 8 -34 10 -27 9 -142 38 -165 42 -76 14 -310 10
-390 -7z"/>
</g>
</svg>
