<svg xmlns="http://www.w3.org/2000/svg" xmlns:xlink="http://www.w3.org/1999/xlink" viewBox="0 0 500 500"><defs><clipPath id="freepik--clip-path--inject-85"><path d="M399,186.64s-13.1-3.18-19.83-.7-16.64,12.39-19.12,15.22-9.91,13.1-9.91,13.1l9.91,8.85,17.35-9.91,2.48,19.12L358,274.8s15.57,16.29,45,17.35,52.4-14.87,52.4-14.87L433.38,230.9l.35-22.3L455,223.82,465.6,209.3s-12.75-14.16-20.18-19.12-18.77-3.89-26.2-3.89-18.77.71-18.77.71Z" style="fill:#EB4747;stroke:#263238;stroke-linecap:round;stroke-linejoin:round"></path></clipPath></defs><g id="freepik--background-simple--inject-85"><path d="M167.19,71.92S91.42,110.52,53.63,170,18.83,306,64.75,362.8s133.69,49.34,207.18,85.32,154.57,28.57,189.32-47.66S443.6,295.74,434.6,207.52,346.07-9.88,167.19,71.92Z" style="fill:#EB4747"></path><path d="M167.19,71.92S91.42,110.52,53.63,170,18.83,306,64.75,362.8s133.69,49.34,207.18,85.32,154.57,28.57,189.32-47.66S443.6,295.74,434.6,207.52,346.07-9.88,167.19,71.92Z" style="fill:#fff;opacity:0.7000000000000001"></path></g><g id="freepik--character-3--inject-85"><path d="M424.88,133.18s-2.83-14.87-21.95-12.74-30.09,27.61-29,35.4,1.77,35,1.77,35l38.24,17L439.4,193l1.06-37.18S441.17,130.7,424.88,133.18Z" style="fill:#263238;stroke:#263238;stroke-linecap:round;stroke-linejoin:round"></path><path d="M379.21,406.51s-5.67,5.67-13.46,12.75-1.41,12.75,8.5,11,15.93-12.4,15.93-12.4,5.67-2.47,5.67-7.43S383.46,403.33,379.21,406.51Z" style="fill:#fff;stroke:#263238;stroke-linecap:round;stroke-linejoin:round"></path><path d="M434.15,406.51s5.67,5.67,13.46,12.75,1.41,12.75-8.5,11-15.93-12.4-15.93-12.4-5.67-2.47-5.67-7.43S429.9,403.33,434.15,406.51Z" style="fill:#fff;stroke:#263238;stroke-linecap:round;stroke-linejoin:round"></path><path d="M372.84,282.59s3.89,63.73,4.6,74.71,2.48,38.59,2.48,38.59-2.84,4.61-2.84,6.38.36,6.37.36,6.37,6,2.48,8.85,2.83,9.91,1.42,9.91,1.42,1.42-6,.71-9.56-1.41-7.44-1.41-7.44,1.77-5.31,1.77-8.5-.36-4.95-.36-7.08,7.44-71.87,7.44-71.87h3.54s6,75.77,6.37,77.18-.71,5.67.35,8.15a56.19,56.19,0,0,1,2.13,6.73,20.88,20.88,0,0,0-1.42,6.37,26.66,26.66,0,0,0,1.07,6.37,61,61,0,0,0,7.78.36c5.32,0,12.4-4.61,12.4-4.61s-1.07-8.49-1.42-11-1.06-6-1.06-7.44v-9.91c0-1.42.35-7.44.35-7.44l3.19-89.93-35.05-18.41Z" style="fill:#263238;stroke:#263238;stroke-linecap:round;stroke-linejoin:round"></path><path d="M399,186.64s-13.1-3.18-19.83-.7-16.64,12.39-19.12,15.22-9.91,13.1-9.91,13.1l9.91,8.85,17.35-9.91,2.48,19.12L358,274.8s15.57,16.29,45,17.35,52.4-14.87,52.4-14.87L433.38,230.9l.35-22.3L455,223.82,465.6,209.3s-12.75-14.16-20.18-19.12-18.77-3.89-26.2-3.89-18.77.71-18.77.71Z" style="fill:#EB4747"></path><g style="clip-path:url(#freepik--clip-path--inject-85)"><line x1="363.31" y1="178.13" x2="363.31" y2="297.99" style="fill:none;stroke:#fff;stroke-linecap:round;stroke-linejoin:round"></line><line x1="366.13" y1="178.13" x2="366.13" y2="297.99" style="fill:none;stroke:#fff;stroke-linecap:round;stroke-linejoin:round"></line><line x1="373.77" y1="178.13" x2="373.77" y2="297.99" style="fill:none;stroke:#fff;stroke-linecap:round;stroke-linejoin:round"></line><line x1="382.62" y1="178.13" x2="382.62" y2="297.99" style="fill:none;stroke:#fff;stroke-linecap:round;stroke-linejoin:round"></line><line x1="385.43" y1="178.13" x2="385.43" y2="297.99" style="fill:none;stroke:#fff;stroke-linecap:round;stroke-linejoin:round"></line><line x1="393.08" y1="178.13" x2="393.08" y2="297.99" style="fill:none;stroke:#fff;stroke-linecap:round;stroke-linejoin:round"></line><line x1="401.93" y1="178.13" x2="401.93" y2="297.99" style="fill:none;stroke:#fff;stroke-linecap:round;stroke-linejoin:round"></line><line x1="404.74" y1="178.13" x2="404.74" y2="297.99" style="fill:none;stroke:#fff;stroke-linecap:round;stroke-linejoin:round"></line><line x1="412.38" y1="178.13" x2="412.38" y2="297.99" style="fill:none;stroke:#fff;stroke-linecap:round;stroke-linejoin:round"></line><line x1="421.23" y1="178.13" x2="421.23" y2="297.99" style="fill:none;stroke:#fff;stroke-linecap:round;stroke-linejoin:round"></line><line x1="424.05" y1="178.13" x2="424.05" y2="297.99" style="fill:none;stroke:#fff;stroke-linecap:round;stroke-linejoin:round"></line><line x1="431.69" y1="178.13" x2="431.69" y2="297.99" style="fill:none;stroke:#fff;stroke-linecap:round;stroke-linejoin:round"></line><line x1="440.54" y1="178.13" x2="440.54" y2="297.99" style="fill:none;stroke:#fff;stroke-linecap:round;stroke-linejoin:round"></line><line x1="443.36" y1="178.13" x2="443.36" y2="297.99" style="fill:none;stroke:#fff;stroke-linecap:round;stroke-linejoin:round"></line><line x1="451" y1="178.13" x2="451" y2="297.99" style="fill:none;stroke:#fff;stroke-linecap:round;stroke-linejoin:round"></line><line x1="465.48" y1="192.61" x2="345.61" y2="192.61" style="fill:none;stroke:#fff;stroke-linecap:round;stroke-linejoin:round"></line><line x1="465.48" y1="195.42" x2="345.61" y2="195.42" style="fill:none;stroke:#fff;stroke-linecap:round;stroke-linejoin:round"></line><line x1="465.48" y1="203.07" x2="345.61" y2="203.07" style="fill:none;stroke:#fff;stroke-linecap:round;stroke-linejoin:round"></line><line x1="465.48" y1="210.71" x2="345.61" y2="210.71" style="fill:none;stroke:#fff;stroke-linecap:round;stroke-linejoin:round"></line><line x1="465.48" y1="213.52" x2="345.61" y2="213.52" style="fill:none;stroke:#fff;stroke-linecap:round;stroke-linejoin:round"></line><line x1="465.48" y1="221.17" x2="345.61" y2="221.17" style="fill:none;stroke:#fff;stroke-linecap:round;stroke-linejoin:round"></line><line x1="465.48" y1="228.81" x2="345.61" y2="228.81" style="fill:none;stroke:#fff;stroke-linecap:round;stroke-linejoin:round"></line><line x1="465.48" y1="231.62" x2="345.61" y2="231.62" style="fill:none;stroke:#fff;stroke-linecap:round;stroke-linejoin:round"></line><line x1="465.48" y1="239.27" x2="345.61" y2="239.27" style="fill:none;stroke:#fff;stroke-linecap:round;stroke-linejoin:round"></line><line x1="465.48" y1="246.91" x2="345.61" y2="246.91" style="fill:none;stroke:#fff;stroke-linecap:round;stroke-linejoin:round"></line><line x1="465.48" y1="249.73" x2="345.61" y2="249.73" style="fill:none;stroke:#fff;stroke-linecap:round;stroke-linejoin:round"></line><line x1="465.48" y1="257.37" x2="345.61" y2="257.37" style="fill:none;stroke:#fff;stroke-linecap:round;stroke-linejoin:round"></line><line x1="465.48" y1="265.01" x2="345.61" y2="265.01" style="fill:none;stroke:#fff;stroke-linecap:round;stroke-linejoin:round"></line><line x1="465.48" y1="267.83" x2="345.61" y2="267.83" style="fill:none;stroke:#fff;stroke-linecap:round;stroke-linejoin:round"></line><line x1="465.48" y1="275.47" x2="345.61" y2="275.47" style="fill:none;stroke:#fff;stroke-linecap:round;stroke-linejoin:round"></line><line x1="465.48" y1="283.11" x2="345.61" y2="283.11" style="fill:none;stroke:#fff;stroke-linecap:round;stroke-linejoin:round"></line><line x1="465.48" y1="285.93" x2="345.61" y2="285.93" style="fill:none;stroke:#fff;stroke-linecap:round;stroke-linejoin:round"></line><line x1="465.48" y1="293.57" x2="345.61" y2="293.57" style="fill:none;stroke:#fff;stroke-linecap:round;stroke-linejoin:round"></line></g><path d="M399,186.64s-13.1-3.18-19.83-.7-16.64,12.39-19.12,15.22-9.91,13.1-9.91,13.1l9.91,8.85,17.35-9.91,2.48,19.12L358,274.8s15.57,16.29,45,17.35,52.4-14.87,52.4-14.87L433.38,230.9l.35-22.3L455,223.82,465.6,209.3s-12.75-14.16-20.18-19.12-18.77-3.89-26.2-3.89-18.77.71-18.77.71Z" style="fill:none;stroke:#263238;stroke-linecap:round;stroke-linejoin:round"></path><path d="M427.48,164.51s3.75-6.82,6.82-1.36-2.73,10.91-5.46,12.62S427.48,164.51,427.48,164.51Z" style="fill:#fff;stroke:#263238;stroke-linecap:round;stroke-linejoin:round"></path><path d="M397.27,185.94l1.41,15.57a11.39,11.39,0,0,0,10.72,7.19c8.59,0,10.53-9,10.53-9l1.77-16.28S407.53,187.35,397.27,185.94Z" style="fill:#fff;stroke:#263238;stroke-linecap:round;stroke-linejoin:round"></path><path d="M412.75,149.49s-18.77,7.85-26.61,9.89l.68,6.14s-4.09-5.11-7.16-.68.34,9.55,3.41,11.94,5.11.34,5.11.34,3.42,10.92,12.63,15.36,19.88,2.2,24.65-8.72c2.42-5.52,4.09-14.87,3.56-23.64C419.23,159.73,412.75,149.49,412.75,149.49Z" style="fill:#fff;stroke:#263238;stroke-linecap:round;stroke-linejoin:round"></path><path d="M405.55,171.14s2.73,3.76,7.51,0" style="fill:none;stroke:#263238;stroke-linecap:round;stroke-linejoin:round"></path><ellipse cx="401.63" cy="165.51" rx="1.36" ry="2.36" style="fill:#263238"></ellipse><ellipse cx="414.71" cy="165.51" rx="1.36" ry="2.36" style="fill:#263238"></ellipse><path d="M394.7,160.57s3.75-3.76,8.53-2.39" style="fill:none;stroke:#263238;stroke-linecap:round;stroke-linejoin:round"></path><path d="M413.06,158.18s5.8-2.39,8.19,2.73" style="fill:none;stroke:#263238;stroke-linecap:round;stroke-linejoin:round"></path><path d="M404.05,176.36s1.12,7.21,4.55,8.16c5,1.39,6.17-8.26,6.17-8.26Z" style="fill:#263238;stroke:#263238;stroke-linecap:round;stroke-linejoin:round"></path><path d="M392.8,171.63s-.31.22-.81.61c-1.63,1.28-5.3,4.38-7,7.47-2.18,4-3.42,13.38-5,15.56S353,207.09,348.31,210.82s-5,15.87,4.36,16.18,12.75-3.73,18-7.46,13.69-14.63,13.69-14.63,8.71-3.73,10.58-7.77,2.44-12.34,3.11-13.07c2.55-2.78,4.66-6.53,4.66-9.33S398.71,168.51,392.8,171.63Z" style="fill:#fff;stroke:#263238;stroke-linecap:round;stroke-linejoin:round"></path><path d="M402.49,174.29s-.85-1.57-2.28,0-7,6.57-7.43,7.43" style="fill:none;stroke:#263238;stroke-linecap:round;stroke-linejoin:round"></path><path d="M400.64,171.57s-1.58-.85-2.43,0-6.58,5.29-7.43,6.86a10.89,10.89,0,0,0-1,2.15" style="fill:none;stroke:#263238;stroke-linecap:round;stroke-linejoin:round"></path><path d="M393.35,171.57s-4.43,4-6.29,7.86" style="fill:none;stroke:#263238;stroke-linecap:round;stroke-linejoin:round"></path><path d="M424.83,171.63s.31.22.81.61c1.63,1.28,5.3,4.38,7,7.47,2.18,4,3.42,13.38,5,15.56s27.06,11.82,31.73,15.55,5,15.87-4.36,16.18-12.75-3.73-18-7.46-13.69-14.63-13.69-14.63-8.71-3.73-10.58-7.77-2.44-12.34-3.11-13.07c-2.55-2.78-4.66-6.53-4.66-9.33S418.92,168.51,424.83,171.63Z" style="fill:#fff;stroke:#263238;stroke-linecap:round;stroke-linejoin:round"></path><path d="M415.14,174.29s.85-1.57,2.28,0,7,6.57,7.43,7.43" style="fill:none;stroke:#263238;stroke-linecap:round;stroke-linejoin:round"></path><path d="M417,171.57s1.58-.85,2.43,0,6.58,5.29,7.43,6.86a10.89,10.89,0,0,1,1,2.15" style="fill:none;stroke:#263238;stroke-linecap:round;stroke-linejoin:round"></path><path d="M424.28,171.57s4.43,4,6.29,7.86" style="fill:none;stroke:#263238;stroke-linecap:round;stroke-linejoin:round"></path></g><g id="freepik--character-2--inject-85"><path d="M226,261.92l-11.19,30.64s7.12,6.91,6.6,9.53-.56,6.52-1.25,8-1.94,3.37-4.14,2-.15-5.78-.15-5.78l-.75-1.43L210.8,317.1a3.48,3.48,0,0,1-4.18.54c-2.63-1.23-.81-3.59-.81-3.59L202,311.54s-4.27-3.08-4.75-5.09,2.43-12.79,3.53-15.13a48.06,48.06,0,0,0,1.91-4.82s4.08-24.15,6.72-32.38Z" style="fill:#fff;stroke:#263238;stroke-linecap:round;stroke-linejoin:round"></path><line x1="205.81" y1="314.05" x2="207.79" y2="302.45" style="fill:none;stroke:#263238;stroke-linecap:round;stroke-linejoin:round"></line><line x1="201.98" y1="311.54" x2="202.95" y2="302.32" style="fill:none;stroke:#263238;stroke-linecap:round;stroke-linejoin:round"></line><line x1="198.49" y1="307.89" x2="199.7" y2="301.41" style="fill:none;stroke:#263238;stroke-linecap:round;stroke-linejoin:round"></line><path d="M233.91,405.92s-10.62,9.77-14.44,14.86,2.13,9.34,10.62,9.77,15.28-8.49,20.8-11.47,7.22-3.39,7.22-12.74S233.91,405.92,233.91,405.92Z" style="fill:#fff;stroke:#263238;stroke-linecap:round;stroke-linejoin:round"></path><path d="M250.89,419.08c4.17-2.24,6.16-3,6.88-7.32a26.71,26.71,0,0,0-7.64,4.35c-3.38,3.16-12,12.24-20.47,11.39s-11-4.43-11-4.43l-.26-.1c-.93,4.08,4.43,7.22,11.67,7.58C238.58,431,245.37,422.06,250.89,419.08Z" style="fill:#fff;stroke:#263238;stroke-linecap:round;stroke-linejoin:round"></path><path d="M236.46,298.92l-2.55,88.74L230.09,394l2.12,13.59s3.4,2.55,11,4.24A112.37,112.37,0,0,0,259.39,414s2.54-18.26,1.69-22.51-1.27-7.64-1.27-7.64l1.7-71.34.42-10.61Z" style="fill:#263238;stroke:#263238;stroke-linecap:round;stroke-linejoin:round"></path><path d="M297.51,405.92s10.62,9.77,14.44,14.86-2.13,9.34-10.62,9.77-15.28-8.49-20.8-11.47-7.22-3.39-7.22-12.74S297.51,405.92,297.51,405.92Z" style="fill:#fff;stroke:#263238;stroke-linecap:round;stroke-linejoin:round"></path><path d="M280.53,419.08c-4.17-2.24-6.16-3-6.89-7.32a26.63,26.63,0,0,1,7.65,4.35c3.37,3.16,12,12.24,20.47,11.39s11-4.43,11-4.43l.26-.1c.93,4.08-4.43,7.22-11.67,7.58C292.84,431,286.05,422.06,280.53,419.08Z" style="fill:#fff;stroke:#263238;stroke-linecap:round;stroke-linejoin:round"></path><path d="M295,298.92l2.55,88.74,3.82,6.37-2.12,13.59s-3.4,2.55-11,4.24A112.37,112.37,0,0,1,272,414s-2.54-18.26-1.7-22.51,1.28-7.64,1.28-7.64l-1.7-71.34-.42-10.61Z" style="fill:#263238;stroke:#263238;stroke-linecap:round;stroke-linejoin:round"></path><path d="M254.76,200.27s-25.37,6.35-26.78,8.46-17.62,43.34-17.62,43.34l15.51,6.35L234,244l-1.41,56.38,28.19,19.38,6-8.11,3.88,8.11,28.19-18.68-4.23-62.37,14.8,8.81,7.05-16.91s-17.62-27.49-22.91-28.19-21.14-3.53-28.19-3.17A81.56,81.56,0,0,0,254.76,200.27Z" style="fill:#EB4747;stroke:#263238;stroke-linecap:round;stroke-linejoin:round"></path><line x1="268.26" y1="218.63" x2="267.44" y2="306.79" style="fill:none;stroke:#263238;stroke-linecap:round;stroke-linejoin:round"></line><line x1="233.97" y1="243.97" x2="231.93" y2="219.04" style="fill:none;stroke:#263238;stroke-linecap:round;stroke-linejoin:round"></line><line x1="294.58" y1="238.68" x2="294.38" y2="214.96" style="fill:none;stroke:#263238;stroke-linecap:round;stroke-linejoin:round"></line><path d="M271.93,224.75a1.23,1.23,0,1,1-1.22-1.22A1.23,1.23,0,0,1,271.93,224.75Z" style="fill:#263238"></path><path d="M271.93,252.51a1.23,1.23,0,1,1-1.22-1.23A1.22,1.22,0,0,1,271.93,252.51Z" style="fill:#263238"></path><path d="M271.93,280.26a1.23,1.23,0,1,1-1.22-1.22A1.23,1.23,0,0,1,271.93,280.26Z" style="fill:#263238"></path><path d="M271.93,308a1.23,1.23,0,1,1-1.22-1.23A1.22,1.22,0,0,1,271.93,308Z" style="fill:#263238"></path><path d="M260.75,193.93s-6,.35-6,2.11-5.64,7.76-5.64,7.76,1.06,19,2.12,20.08,18-13.74,18-13.74,14.8,12.69,15.86,13-.71-16.92-2.47-20.79-6-8.11-9.16-8.46S260.75,193.93,260.75,193.93Z" style="fill:#fff;stroke:#263238;stroke-linecap:round;stroke-linejoin:round"></path><path d="M257.23,188.29s.7,13.39,1.76,15.86,8.81,14.09,10.57,13.39,8.11-13,8.11-15.15,1.41-12.69,1.41-12.69S265.33,191.46,257.23,188.29Z" style="fill:#fff;stroke:#263238;stroke-linecap:round;stroke-linejoin:round"></path><path d="M278.52,194c.3-2.38.56-4.32.56-4.32s-13.75,1.76-21.85-1.41c0,0,.12,2.26.33,5.09q.53.3,1.08.57C264.93,197,272.61,197.36,278.52,194Z" style="fill:#263238;stroke:#263238;stroke-linecap:round;stroke-linejoin:round"></path><polygon points="208.38 247.14 206.84 258.77 228.04 264.41 231.5 253.48 208.38 247.14" style="fill:#fff;stroke:#263238;stroke-linecap:round;stroke-linejoin:round"></polygon><path d="M314.13,224.13s-6.95,7-9.51,11.33a104.32,104.32,0,0,0-5.12,10.61l9.51,7,14.63-23S315.23,223.76,314.13,224.13Z" style="fill:#fff;stroke:#263238;stroke-linecap:round;stroke-linejoin:round"></path><path d="M324.12,209.69s-2.74-6.1-2.74-9.15,3.66-13.11,3.66-14,2.74-3.05,3.35,0a21.89,21.89,0,0,1,0,6.71l.92,2.74L335.78,185a2.63,2.63,0,0,1,2.68-1.53c2.3.26,1.28,3.32,1.28,3.32l-3.37,9.32-.05.13,6.4-11.89s2.58-1.11,4,.53c1.15,1.28-.25,3.07-.25,3.07l-5.33,11.34,6.6-9.34a1.77,1.77,0,0,1,3.14.44l0,.06c.61,2.14-5.18,10.67-5.18,10.67L350,197.8s2.14-2.44,2.75.3a3.27,3.27,0,0,1-.31,2.14c-.65,1-8.23,7.92-8.23,7.92s-5.48,4.27-6.4,4.88a11,11,0,0,1-3.35.91s-4.15,27.73-6.28,32.3-8.55,8.63-12.62,8.23-10.42-4.93-7.68-13.16S324.12,209.69,324.12,209.69Z" style="fill:#fff;stroke:#263238;stroke-linecap:round;stroke-linejoin:round"></path><path d="M329.31,196s2.43,4.27,2.74,6.4-.92,5.79-.92,5.79" style="fill:#fff;stroke:#263238;stroke-linecap:round;stroke-linejoin:round"></path><path d="M288.94,133s.71-6.7-6-12-11.63-5.29-11.27-3.17a9.55,9.55,0,0,0,1.76,3.87s-15.51-6-26.08-1S234.68,134,236.79,134a6.11,6.11,0,0,1,3.17.7s-8.81,10.93-9.16,16.56,5.29,7.05,5.29,7.05l3.17,7.75s7,4.23,9.16,1.76-.71-8.1,1.06-9.16,18-8.45,18-8.45a11.77,11.77,0,0,0,9.16,3.17c6-.35,7.75-3.53,7.75-3.53l2.82,10.57s8.11-3.52,8.81-8.45a32.38,32.38,0,0,0-.7-10.57s7,0,3.52-4.94S288.94,133,288.94,133Z" style="fill:#263238;stroke:#263238;stroke-linecap:round;stroke-linejoin:round"></path><path d="M286.54,161.94s3.87-7.05,7-1.41-2.82,11.27-5.64,13S286.54,161.94,286.54,161.94Z" style="fill:#fff;stroke:#263238;stroke-linecap:round;stroke-linejoin:round"></path><path d="M286.48,141.78s-3.53,7.05-9.87,9.16-5.29-3.88-5.29-3.88-19.38,8.11-27.48,10.22l.7,6.35s-4.23-5.29-7.4-.71.36,9.87,3.53,12.33,5.28.36,5.28.36,3.53,11.27,13,15.85,22.2,3.18,27.13-8.1S286.48,141.78,286.48,141.78Z" style="fill:#fff;stroke:#263238;stroke-linecap:round;stroke-linejoin:round"></path><path d="M264.39,169.14s2.82,3.88,7.75,0" style="fill:none;stroke:#263238;stroke-linecap:round;stroke-linejoin:round"></path><path d="M262.28,163.33c0,1.85-.87,3.35-1.94,3.35s-1.94-1.5-1.94-3.35.87-3.35,1.94-3.35S262.28,161.48,262.28,163.33Z" style="fill:#263238"></path><path d="M277.25,163.86c0,1.85-.86,3.35-1.93,3.35s-1.94-1.5-1.94-3.35.87-3.35,1.94-3.35S277.25,162,277.25,163.86Z" style="fill:#263238"></path><path d="M255.23,158.22s3.88-3.88,8.81-2.47" style="fill:none;stroke:#263238;stroke-linecap:round;stroke-linejoin:round;stroke-width:2px"></path><path d="M272.14,155.75s6-2.46,8.46,2.82" style="fill:none;stroke:#263238;stroke-linecap:round;stroke-linejoin:round;stroke-width:2px"></path><path d="M263,175.13s6.35,2.82,10.93-.7" style="fill:none;stroke:#263238;stroke-linecap:round;stroke-linejoin:round"></path></g><g id="freepik--character-1--inject-85"><path d="M50.62,395.91s-5.35,6.5-7.65,8.41S29.59,414.26,25.38,420s.39,11.85,10.33,10.32,8.41-6.11,14.15-8,8.79-4.2,9.56-11.08.76-13,.76-13Z" style="fill:#fff;stroke:#263238;stroke-linecap:round;stroke-linejoin:round"></path><path d="M54.06,410.06l-1.91-4.59c-1.91-4.59-6.88-2.29-6.88-2.29l-.93-.15A18.5,18.5,0,0,1,43,404.32c-2.29,1.92-13.38,9.94-17.59,15.68s.39,11.85,10.33,10.32,8.41-6.11,14.15-8,8.79-4.2,9.56-11.08c.11-1,.2-2,.29-3Z" style="fill:#EB4747;stroke:#263238;stroke-linecap:round;stroke-linejoin:round"></path><path d="M58.71,414.71A65.32,65.32,0,0,0,51,418.85c-5.35,3.44-6.88,6.89-16.82,8-5.59.65-8.64-1.61-10.24-3.71-.88,4.57,3.67,8.4,11.77,7.15,9.94-1.52,8.41-6.11,14.15-8C54.48,420.75,57.37,419,58.71,414.71Z" style="fill:#fff;stroke:#263238;stroke-linecap:round;stroke-linejoin:round"></path><path d="M161.86,395.91s5.36,6.5,7.65,8.41,13.38,9.94,17.59,15.68-.38,11.85-10.32,10.32-8.42-6.11-14.15-8-8.8-4.2-9.56-11.08-.77-13-.77-13Z" style="fill:#fff;stroke:#263238;stroke-linecap:round;stroke-linejoin:round"></path><path d="M158.42,410.06l1.91-4.59c1.92-4.59,6.89-2.29,6.89-2.29l.93-.15c.51.52,1,1,1.36,1.29,2.3,1.92,13.38,9.94,17.59,15.68s-.38,11.85-10.32,10.32-8.42-6.11-14.15-8-8.8-4.2-9.56-11.08c-.11-1-.21-2-.29-3Z" style="fill:#EB4747;stroke:#263238;stroke-linecap:round;stroke-linejoin:round"></path><path d="M153.78,414.71a64.48,64.48,0,0,1,7.7,4.14c5.35,3.44,6.88,6.89,16.83,8,5.59.65,8.64-1.61,10.24-3.71.87,4.57-3.67,8.4-11.77,7.15-9.95-1.52-8.42-6.11-14.15-8C158,420.75,155.12,419,153.78,414.71Z" style="fill:#fff;stroke:#263238;stroke-linecap:round;stroke-linejoin:round"></path><polygon points="83.16 270.05 47.95 391.32 67.06 394.76 112.28 308.93 122.6 310.46 150.04 403.94 169.54 402.03 154.67 286.87 119.49 270.43 83.16 270.05" style="fill:#263238;stroke:#263238;stroke-linecap:round;stroke-linejoin:round"></polygon><path d="M150.46,187.84s-17.59-7.27-26.77-8.8-15.29-.76-19.11,1.91-6.5,15.68-4.59,20.27a35.73,35.73,0,0,1,2.29,6.88S93.1,249,92.72,251.31s-8.41,4.59-8.41,6.5S82,271.58,82,271.58s14.91,6.88,39,12.23,34.41,5,34.41,5,.38-7.64.77-13-1.53-9.17-1.53-10.32,13.76-38.62,13.76-38.62l12.24,18.74-3.44,38.62s-11.09,3.82-11.86,6.88-2.67,7.26-2.67,9.18.38,4.58,3.44,4.2,3.06-6.12,3.06-6.12l1.53-1.14-1.53,15.29a4.11,4.11,0,0,0,4.2,2.68c3.45,0,2.68-3.44,2.68-3.44l5.35-.77s6.12-1.14,7.65-3.06,3.82-14.91,3.82-18a55.48,55.48,0,0,1,.39-6.12s10.32-37.09,9.17-41.29S186,205,183,201.22s-18-9.94-22.56-10.71A68.62,68.62,0,0,1,150.46,187.84Z" style="fill:#b2b2b2;stroke:#263238;stroke-linecap:round;stroke-linejoin:round"></path><line x1="176.08" y1="311.73" x2="179.79" y2="298.32" style="fill:none;stroke:#263238;stroke-linecap:round;stroke-linejoin:round"></line><line x1="181.43" y1="310.96" x2="185.04" y2="300.61" style="fill:none;stroke:#263238;stroke-linecap:round;stroke-linejoin:round"></line><line x1="187.01" y1="308.81" x2="188.97" y2="301.27" style="fill:none;stroke:#263238;stroke-linecap:round;stroke-linejoin:round"></line><path d="M183,201.22c-3.06-3.82-18-9.94-22.56-10.71a68.62,68.62,0,0,1-9.94-2.67s-17.59-7.27-26.77-8.8-15.29-.76-19.11,1.91-6.5,15.68-4.59,20.27a35.73,35.73,0,0,1,2.29,6.88S93.1,249,92.72,251.31s-8.41,4.59-8.41,6.5S82,271.58,82,271.58s14.91,6.88,39,12.23,34.41,5,34.41,5,.38-7.64.77-13-1.53-9.17-1.53-10.32,13.76-38.62,13.76-38.62l8.37,12.82,18.63-13.6C190.58,215.47,184.73,203.43,183,201.22Z" style="fill:#fff;stroke:#263238;stroke-linecap:round;stroke-linejoin:round"></path><path d="M176.8,239.66l18.63-13.6c-1.5-3.29-3.1-6.71-4.65-9.94l-.1-.21c-.26-.54-.52-1.07-.77-1.6-.06-.13-.12-.26-.19-.38l-.68-1.41-.2-.41c-.23-.46-.44-.9-.66-1.33l-.19-.38-.7-1.41a1.86,1.86,0,0,1-.1-.2c-.26-.52-.52-1-.77-1.51l-.08-.15c-.21-.41-.42-.8-.61-1.18l-.23-.42c-.14-.28-.29-.55-.43-.8s-.15-.29-.23-.42l-.36-.66-.22-.38-.32-.56-.19-.31-.29-.47-.14-.21a5.1,5.1,0,0,0-.36-.5c-3.06-3.82-18-9.94-22.56-10.71a68.62,68.62,0,0,1-9.94-2.67s-17.59-7.27-26.77-8.8-15.29-.76-19.11,1.91-6.5,15.68-4.59,20.27a35.73,35.73,0,0,1,2.29,6.88s-1.38,6.17-3.09,13.84c10.55-3.13,40.21-12.75,50.51-24.93l2.67.39s-.63,27.7,8.69,49.69c3.59-10,7.37-20.25,7.37-20.25Z" style="fill:#EB4747;stroke:#263238;stroke-linecap:round;stroke-linejoin:round"></path><path d="M102.28,208.1s9-.07,11.68-14.32" style="fill:#EB4747;stroke:#263238;stroke-linecap:round;stroke-linejoin:round"></path><polyline points="175.16 210.72 168.43 226.84 181.7 211.49" style="fill:#EB4747;stroke:#263238;stroke-linecap:round;stroke-linejoin:round"></polyline><path d="M162.57,191c-1.48-.27-3-.6-4.64-1-3.84-.89-7.47-2.18-7.47-2.18s-5.8-2.4-12.47-4.73c-.27,9.13,0,26.67,6,31,6.76,5,22.13-13.39,27.24-19.89A78.39,78.39,0,0,0,162.57,191Z" style="fill:#fff;stroke:#263238;stroke-linecap:round;stroke-linejoin:round"></path><path d="M142.43,181s-3.06,23.71,3.06,28.68,23.33-16.06,23.33-16.06S149.31,192.81,142.43,181Z" style="fill:#b2b2b2;stroke:#263238;stroke-linecap:round;stroke-linejoin:round"></path><path d="M141.9,155.88s-3.85-6.83-6.84,0,1.29,12,4.7,12.39S141.9,155.88,141.9,155.88Z" style="fill:#b2b2b2;stroke:#263238;stroke-linecap:round;stroke-linejoin:round"></path><path d="M184.08,166.66s6.72-4,5.95,3.37-7,9.77-10.19,8.46S184.08,166.66,184.08,166.66Z" style="fill:#b2b2b2;stroke:#263238;stroke-linecap:round;stroke-linejoin:round"></path><path d="M144,142.64s-5.55,19.22-5.12,31.18,8.11,20.93,15,23.49,19.65-5.55,24.35-13.66,12-27.34,11.1-36.74-14.52-17.09-24.77-17.51S145.74,132.39,144,142.64Z" style="fill:#b2b2b2;stroke:#263238;stroke-linecap:round;stroke-linejoin:round"></path><path d="M147.88,160.58a12.26,12.26,0,0,1,9,2.56" style="fill:none;stroke:#263238;stroke-linecap:round;stroke-linejoin:round;stroke-width:2px"></path><path d="M147.45,153.74a15.34,15.34,0,0,1,11.53,0" style="fill:none;stroke:#263238;stroke-linecap:round;stroke-linejoin:round"></path><path d="M167.1,167s6.41-.43,9,3.84" style="fill:none;stroke:#263238;stroke-linecap:round;stroke-linejoin:round;stroke-width:2px"></path><path d="M170.52,158.87a10.22,10.22,0,0,1,9,5.13" style="fill:none;stroke:#263238;stroke-linecap:round;stroke-linejoin:round"></path><path d="M155.57,167.84s-1.28,3.42,3,5.13a5.09,5.09,0,0,0,6.4-1.71" style="fill:none;stroke:#263238;stroke-linecap:round;stroke-linejoin:round"></path><path d="M166.14,177a9.75,9.75,0,0,1-8.58.44c-3.26-1.34-3.51-3.74-6.37-5.28s-5.28.66-4.18,5.5,6.82,7.69,12.31,8.35,10.12-2.2,10.34-5.72S166.14,177,166.14,177Z" style="fill:#fff;stroke:#263238;stroke-linecap:round;stroke-linejoin:round"></path><path d="M147,173.07a19,19,0,0,0,10.11,8.57,16.29,16.29,0,0,0,12.32-.44" style="fill:none;stroke:#263238;stroke-linecap:round;stroke-linejoin:round"></path><path d="M189.31,146.91c-.85-9.4-14.52-17.09-24.77-17.51s-18.8,3-20.51,13.24c0,0-1.36,4.72-2.68,10.94a15,15,0,0,1,2.9-2.79c4.08-3.06,5.1-2.38,5.1-6.46s2.73-8.85,5.79-9.19,5.79.68,12.25,3.74,13.28,2.38,16.34,4.77,4.43,6.12,1,10.55-1.36,7.15-1.36,9.19-.68,6.12,1,6.47C187.43,161.68,189.82,152.54,189.31,146.91Z" style="fill:#263238"></path><path d="M82.78,182.87s.38,13.76,3.06,19.5,11.47,8,18,3.06,4.59-14.15,2.3-18.74-3.83-7.26-3.83-7.26Z" style="fill:#b2b2b2;stroke:#263238;stroke-linecap:round;stroke-linejoin:round"></path><path d="M106.49,183.63l11.85-8.79c1.53-1.15,3.06-5,.77-6.5s-5,1.14-5,1.14-8.42,4.21-10,4.21-3.82-4.59-5-6.5S95.4,152.28,94.63,150s-5.73-1.53-5.73,1.91,2.29,13.39,2.29,13.39l-5.35.76S81.25,155,80.1,152.66s-6.11-1.53-5.35,1.53,5,14.15,5,14.15H76.66s-7.26-8.8-8.79-9.18-3.06,1.91-.38,5.73,6.11,8,6.11,8-8-.76-9.17-1.14-3.83,2.67-.77,4.2A60.17,60.17,0,0,0,72.84,179s5.35,7.27,10.71,6.5a36.2,36.2,0,0,0,8.79-2.29S97.69,187.46,106.49,183.63Z" style="fill:#b2b2b2;stroke:#263238;stroke-linecap:round;stroke-linejoin:round"></path><polygon points="144.69 393.23 148.89 404.32 170.69 402.41 170.69 385.97 144.69 393.23" style="fill:#fff;stroke:#263238;stroke-linecap:round;stroke-linejoin:round"></polygon><polygon points="47.18 385.97 45.65 396.68 64.39 402.79 73.18 389.79 47.18 385.97" style="fill:#fff;stroke:#263238;stroke-linecap:round;stroke-linejoin:round"></polygon></g></svg>