<svg xmlns="http://www.w3.org/2000/svg" viewBox="0 0 106.14 88.27"><defs><style>.cls-1{fill:#ed1c24;}.cls-2{fill:#fff;}.cls-2,.cls-3{opacity:0.15;}.cls-3{fill:#231f20;}</style></defs><g id="Layer_2" data-name="Layer 2"><g id="Layer_2-2" data-name="Layer 2"><path class="cls-1" d="M36.93,52.11,4,26.94a10,10,0,0,1-1.89-14.1L8.85,4A10.05,10.05,0,0,1,22.94,2.06l33,25.17a10.06,10.06,0,0,1,1.9,14.1L51,50.22A10.07,10.07,0,0,1,36.93,52.11Z"/><path class="cls-1" d="M63.94,42.89,54.15,55.72a2,2,0,0,1-2.82.38L48.58,54,60.82,38l2.74,2.09A2,2,0,0,1,63.94,42.89Z"/><path class="cls-1" d="M69.13,58.61,56.85,52.77l5-6.49,8.86,10.3C72.27,58.44,71.34,59.66,69.13,58.61Z"/><path class="cls-2" d="M21.2,1A28.21,28.21,0,0,0,9,12.26,28.08,28.08,0,0,0,5.47,28.09L4,26.94a10,10,0,0,1-1.89-14.1L8.85,4A10.07,10.07,0,0,1,21.2,1Z"/><path class="cls-3" d="M69.13,58.61l-3-1.44a15.4,15.4,0,0,0,1.43-1.87,13.31,13.31,0,0,0,.81-1.42l2.32,2.7C72.27,58.44,71.34,59.66,69.13,58.61Z"/><path class="cls-1" d="M.15,19.86q0,1.08,0,2.16A9.92,9.92,0,0,1,.24,18C.19,18.59.16,19.22.15,19.86Z"/><path class="cls-1" d="M103.63,77.64l-.28.11a5.53,5.53,0,0,1-5,5,10.27,10.27,0,0,1-1.62.12c.87,2.25-17.37,7.07-27.95,4.82a22.66,22.66,0,0,1-3.44.32s-.86,0-1.68,0c-4.68-.28-9.41-3.31-10.14-4.49a2.39,2.39,0,0,1-.33-2c.11-.48.22-.94.33-1.39-4.05-1.47-6.07-4.8-3-6.63a9.81,9.81,0,0,1,3.57-1,2,2,0,0,1-.3-2.33c1.43-2.57,7.86-3.76,7.86-3.76,13.54-2.5,18.67-1.28,20.95-.61l.67.2a50.2,50.2,0,0,1,7.83.16C105.91,67.73,109.1,75.45,103.63,77.64Z"/></g></g></svg>