<?xml version="1.0" encoding="UTF-8"?><svg id="Layer_2" xmlns="http://www.w3.org/2000/svg" viewBox="0 0 79.47 66.99"><defs><style>.cls-1,.cls-2{fill:#fff;}.cls-2,.cls-3{opacity:.15;}.cls-4{fill:#ed1c24;}.cls-3{fill:#231f20;}</style></defs><g id="Layer_1_copy"><path class="cls-1" d="M47.03,62.17c-3.1,0-6.05-1-8.52-2.88L5.53,34.12C2.55,31.84,.63,28.54,.13,24.81s.48-7.42,2.76-10.4L9.67,5.53C12.35,2.02,16.43,0,20.85,0,23.96,0,26.9,1,29.37,2.88L62.34,28.05c2.99,2.28,4.9,5.58,5.4,9.3,.5,3.72-.48,7.42-2.76,10.4l-6.78,8.89c-2.68,3.51-6.76,5.53-11.18,5.53Z"/><path class="cls-1" d="M40.93,56.11L7.96,30.94c-4.42-3.37-5.26-9.68-1.89-14.1L12.85,7.95c3.37-4.41,9.68-5.26,14.1-1.89L59.92,31.23c4.42,3.37,5.26,9.68,1.89,14.1l-6.78,8.89c-3.37,4.42-9.68,5.26-14.1,1.89Z"/><path class="cls-1" d="M56.55,64.51c-1.31,0-2.6-.44-3.64-1.23l-5.93-4.52,17.09-22.39,5.92,4.52c1.28,.97,2.1,2.39,2.31,3.98,.21,1.59-.21,3.17-1.18,4.45l-9.79,12.83c-1.13,1.48-2.92,2.37-4.78,2.37Z"/><path class="cls-1" d="M67.94,46.89l-9.79,12.83c-.67,.88-1.93,1.05-2.82,.38l-2.75-2.1,12.23-16.03,2.74,2.1c.88,.67,1.05,1.94,.38,2.82Z"/><path class="cls-1" d="M74.55,66.99c-1,0-2.06-.26-3.14-.78l-16.74-7.96,10.95-14.33,12.08,14.04c2.48,2.88,1.76,5.34,1.34,6.26-.78,1.71-2.5,2.77-4.49,2.77Z"/><path class="cls-1" d="M73.13,62.61l-12.28-5.84,4.96-6.49,8.87,10.3c1.6,1.86,.67,3.08-1.55,2.03Z"/><path class="cls-2" d="M5.53,34.12C2.55,31.84,.63,28.54,.13,24.81s.48-7.42,2.76-10.4L9.67,5.53C12.35,2.01,16.43,0,20.85,0c2.1,0,4.2,.48,6.08,1.39l7.44,3.58-7.42,3.62c-4.46,2.17-8.08,5.52-10.46,9.66-2.32,4.04-3.34,8.62-3.03,13.6l.54,8.74-8.47-6.46Z"/><path class="cls-2" d="M25.2,4.99c-5.07,2.47-9.35,6.34-12.18,11.27-3.27,5.7-3.83,11.46-3.56,15.83l-1.51-1.15c-4.42-3.37-5.26-9.68-1.89-14.1L12.85,7.95c2.95-3.86,8.14-4.99,12.35-2.96Z"/><path class="cls-2" d="M74.55,66.99c-1,0-2.06-.26-3.14-.78l-7.83-3.72,3.55-3.98c.38-.43,.74-.89,1.05-1.39,.22-.35,.42-.7,.6-1.04l2.69-5.36,6.23,7.25c2.48,2.88,1.76,5.34,1.34,6.26-.78,1.71-2.5,2.77-4.49,2.77Z"/><path class="cls-2" d="M73.13,62.61l-3.01-1.43c.52-.58,1-1.21,1.43-1.87,.3-.46,.57-.93,.81-1.42l2.32,2.7c1.6,1.86,.67,3.08-1.55,2.03Z"/><path class="cls-4" d="M4.15,23.86c-.01,.72,0,1.45,.03,2.17-.26-1.33-.24-2.72,.05-4.06-.05,.63-.08,1.26-.09,1.89Z"/></g><g id="Layer_1-2"><path class="cls-4" d="M40.93,56.11L7.96,30.94c-4.42-3.37-5.26-9.68-1.89-14.1L12.85,7.95c3.37-4.41,9.68-5.26,14.1-1.89L59.92,31.23c4.42,3.37,5.26,9.68,1.89,14.1l-6.78,8.89c-3.37,4.42-9.68,5.26-14.1,1.89Z"/><path class="cls-4" d="M67.94,46.89l-9.79,12.83c-.67,.88-1.93,1.05-2.82,.38l-2.75-2.1,12.23-16.03,2.74,2.1c.88,.67,1.05,1.94,.38,2.82Z"/><path class="cls-4" d="M73.13,62.61l-12.28-5.84,4.96-6.49,8.87,10.3c1.6,1.86,.67,3.08-1.55,2.03Z"/><path class="cls-2" d="M25.2,4.99c-5.07,2.47-9.35,6.34-12.18,11.27-3.27,5.7-3.83,11.46-3.56,15.83l-1.51-1.15c-4.42-3.37-5.26-9.68-1.89-14.1L12.85,7.95c2.95-3.86,8.14-4.99,12.35-2.96Z"/><path class="cls-3" d="M73.13,62.61l-3.01-1.43c.52-.58,1-1.21,1.43-1.87,.3-.46,.57-.93,.81-1.42l2.32,2.7c1.6,1.86,.67,3.08-1.55,2.03Z"/><path class="cls-4" d="M4.15,23.86c-.01,.72,0,1.45,.03,2.17-.26-1.33-.24-2.72,.05-4.06-.05,.63-.08,1.26-.09,1.89Z"/></g></svg>